<svg xmlns="http://www.w3.org/2000/svg" xmlns:xlink="http://www.w3.org/1999/xlink" width="90" height="77" viewBox="0 0 90 77">
    <defs>
        <path id="a" d="M27.727 0C12.414 0 0 10.521 0 23.5S12.414 47 27.727 47c15.314 0 27.728-10.521 27.728-23.5"/>
        <path id="c" d="M27.727 0C12.414 0 0 10.521 0 23.5S12.414 47 27.727 47c15.314 0 27.728-10.521 27.728-23.5"/>
    </defs>
    <g fill="none" fill-rule="evenodd">
        <path fill="#FFD961" d="M72.727 33.5C72.727 46.479 60.313 57 45 57S17.273 46.479 17.273 33.5 29.687 10 45 10s27.727 10.521 27.727 23.5"/>
        <g transform="translate(17.273 10)">
            <mask id="b" fill="#fff">
                <use xlink:href="#a"/>
            </mask>
            <path fill="#AF9345" d="M58.364 23.5c0 2.834-1.313 5.132-2.931 5.132-1.619 0-2.931-2.298-2.931-5.132 0-2.834 1.312-5.132 2.93-5.132 1.62 0 2.932 2.298 2.932 5.132" mask="url(#b)"/>
        </g>
        <g transform="translate(17.273 10)">
            <mask id="d" fill="#fff">
                <use xlink:href="#c"/>
            </mask>
            <path fill="#AF9345" d="M2.91 23.5c0 2.834-1.313 5.132-2.932 5.132-1.618 0-2.93-2.298-2.93-5.132 0-2.834 1.312-5.132 2.93-5.132 1.619 0 2.931 2.298 2.931 5.132" mask="url(#d)"/>
        </g>
        <g>
            <path fill="#333" d="M69.61 30.169c0 10.442-10.987 18.908-24.54 18.908-13.554 0-24.54-8.466-24.54-18.908 0-10.443 10.986-18.908 24.54-18.908 13.553 0 24.54 8.465 24.54 18.908"/>
            <path fill="#191919" d="M41.81 20.924c.877 3.063-1.636 6.452-5.612 7.568-3.976 1.117-7.91-.462-8.788-3.526-.876-3.063 1.636-6.452 5.612-7.568 3.977-1.117 7.911.462 8.788 3.526"/>
            <path fill="#3567CC" d="M40.844 20.536c.78 2.727-1.456 5.743-4.995 6.737-3.54.994-7.041-.412-7.822-3.139-.78-2.727 1.456-5.743 4.995-6.736 3.54-.994 7.042.411 7.822 3.138"/>
            <path fill="#4281FF" d="M39.66 20.061c.663 2.314-1.235 4.874-4.239 5.717-3.004.843-5.975-.349-6.638-2.663-.662-2.315 1.236-4.874 4.24-5.717 3.003-.844 5.975.349 6.637 2.663"/>
            <path fill="#FFD961" d="M20.182 32.6c0 2.834-1.312 5.132-2.931 5.132s-2.93-2.298-2.93-5.132c0-2.835 1.311-5.133 2.93-5.133 1.619 0 2.93 2.298 2.93 5.133"/>
            <path fill="#AF9345" d="M18.182 32.6c0 1.846-.855 3.343-1.91 3.343-1.054 0-1.908-1.497-1.908-3.343 0-1.847.854-3.343 1.909-3.343 1.054 0 1.909 1.496 1.909 3.343"/>
            <path fill="#FFEF94" d="M16.91 32.6c0 1.406-.652 2.547-1.455 2.547-.804 0-1.455-1.14-1.455-2.547 0-1.407.651-2.548 1.455-2.548.803 0 1.454 1.14 1.454 2.548"/>
            <path fill="#191919" d="M31.484 33.95c-.002.064-.007.128-.007.192 0 6.03 6.345 10.918 14.17 10.918 7.827 0 14.171-4.888 14.171-10.918 0-.064-.005-.128-.006-.192H31.484z"/>
            <path fill="#4281FF" d="M31.665 33.41c-.001.06-.006.12-.006.18 0 5.669 5.965 10.264 13.322 10.264 7.358 0 13.322-4.595 13.322-10.264 0-.06-.005-.12-.006-.18H31.665z"/>
            <path fill="#191919" d="M48.138 20.924c-.877 3.063 1.636 6.452 5.612 7.568 3.976 1.117 7.91-.462 8.787-3.526.877-3.063-1.635-6.452-5.612-7.568-3.976-1.117-7.91.462-8.787 3.526"/>
            <path fill="#3567CC" d="M49.104 20.536c-.78 2.727 1.456 5.743 4.995 6.737 3.54.994 7.04-.412 7.821-3.139.78-2.727-1.456-5.743-4.995-6.736-3.54-.994-7.041.411-7.821 3.138"/>
            <path fill="#4281FF" d="M50.287 20.061c-.662 2.314 1.236 4.874 4.24 5.717 3.003.843 5.975-.349 6.637-2.663.663-2.315-1.235-4.874-4.239-5.717-3.003-.844-5.975.349-6.638 2.663"/>
            <path fill="#FFD961" d="M69.818 32.6c0-2.835 1.312-5.133 2.931-5.133s2.93 2.298 2.93 5.133c0 2.834-1.311 5.132-2.93 5.132-1.619 0-2.93-2.298-2.93-5.132"/>
            <path fill="#AF9345" d="M71.818 32.6c0-1.847.855-3.343 1.91-3.343 1.054 0 1.908 1.496 1.908 3.343 0 1.846-.854 3.343-1.909 3.343-1.054 0-1.909-1.497-1.909-3.343"/>
            <path fill="#FFEF94" d="M73.09 32.6c0-1.407.652-2.548 1.455-2.548.804 0 1.455 1.14 1.455 2.548 0 1.406-.651 2.547-1.455 2.547-.803 0-1.454-1.14-1.454-2.547"/>
        </g>
    </g>
</svg>
